@startuml

class AbstractProductA
class ProductA1
class ProductA2

AbstractProductA <|--- ProductA1
AbstractProductA <|--- ProductA2

class AbstractProductB
class ProductB1
class ProductB2

AbstractProductB <|--- ProductB1
AbstractProductB <|--- ProductB2

class AbstractFactory {
    +CreateProductA()
    +CreateProductB()
}

class ConcreteFactory1 {
    +CreateProductA()
    +CreateProductB()
}

class ConcreteFactory2 {
    +CreateProductA()
    +CreateProductB()
}

AbstractFactory <|--- ConcreteFactory1
AbstractFactory <|--- ConcreteFactory2

ProductA1 <. ConcreteFactory1
ProductB1 <. ConcreteFactory1

ProductA2 <. ConcreteFactory2
ProductB2 <. ConcreteFactory2

@enduml